<svg width="147" height="24" fill="none" style="pointer-events:auto"><path fill="#2C2A25" d="M50.032 13.092h5.942a.4.4 0 0 0 .4-.4v-1.49a.4.4 0 0 0-.4-.4h-5.942v-2.97h6.75a.4.4 0 0 0 .399-.399v-1.49a.4.4 0 0 0-.4-.4h-8.843a.4.4 0 0 0-.4.4V18.05c0 .22.18.4.4.4h8.931a.4.4 0 0 0 .4-.4v-1.49a.4.4 0 0 0-.4-.4h-6.833v-3.073l-.004.004ZM92.89 16.165v-3.073h5.942a.4.4 0 0 0 .4-.4v-1.49a.4.4 0 0 0-.4-.4H92.89v-2.97h6.75c.219 0 .399-.179.399-.399v-1.49c0-.22-.18-.4-.4-.4h-8.843a.4.4 0 0 0-.4.4V18.05c0 .22.18.4.4.4h8.931c.22 0 .4-.18.4-.4v-1.49c0-.22-.18-.4-.4-.4h-6.833l-.004.004ZM81.221 13.351h2.865v1.815a.56.56 0 0 1-.255.48c-.736.459-1.655.706-2.638.706-2.433 0-4.132-1.79-4.132-4.387 0-2.402 1.73-4.284 3.94-4.284.975 0 1.695.192 2.33.531a.647.647 0 0 0 .576.012l1.846-.843a.279.279 0 0 0 .056-.471 10.434 10.434 0 0 0-.648-.476c-1.19-.771-2.441-1.099-4.092-1.099-3.712 0-6.625 2.925-6.625 6.662v.032c0 3.904 2.745 6.625 6.677 6.625 2.258 0 3.904-.859 4.972-1.686l.071-.06a.992.992 0 0 0 .364-.763v-4.656a.4.4 0 0 0-.4-.4h-4.907a.4.4 0 0 0-.4.4v1.459c0 .22.18.4.4.4v.003ZM36.053 11.41l-4.627-5.715a.408.408 0 0 0-.312-.148H29.16a.4.4 0 0 0-.4.4v12.108c0 .22.18.4.4.4h1.663a.4.4 0 0 0 .4-.4V9.839l4.523 5.159c.16.184.447.18.607-.004l4.376-5.187v8.252c0 .22.18.4.4.4h1.698a.4.4 0 0 0 .4-.4V5.947a.4.4 0 0 0-.4-.4h-1.95a.388.388 0 0 0-.312.152l-4.508 5.71h-.004ZM68.985 13.647a1.356 1.356 0 0 0-.116-.148c1.707-.64 2.638-1.97 2.638-3.82 0-1.159-.364-2.11-1.075-2.821-.86-.86-2.154-1.311-3.749-1.311h-5.35a.4.4 0 0 0-.4.4v12.108c0 .22.18.4.4.4h1.714a.4.4 0 0 0 .4-.4v-4.016h1.638c.771 0 1.503.375 1.95 1.003l2.198 3.077a.798.798 0 0 0 .651.335h1.954a.301.301 0 0 0 .244-.475l-3.097-4.332Zm-2.457-1.882h-3.081V7.853h3.065c1.586 0 2.461.687 2.461 1.966 0 1.183-.959 1.946-2.445 1.946ZM13.874 9.126A19.52 19.52 0 0 0 8.45 11.28a18.343 18.343 0 0 1-6.506-7.133.802.802 0 0 1 .38-1.099l2.466-1.123a.797.797 0 0 1 1.035.352 14.104 14.104 0 0 0 8.048 6.85ZM4.79 22.074 2.322 20.95a.807.807 0 0 1-.38-1.1 18.426 18.426 0 0 1 15.513-9.985c.46-.02.843.343.843.799v2.713a.794.794 0 0 1-.75.796 14.106 14.106 0 0 0-11.725 7.548.793.793 0 0 1-1.035.352h.004ZM107.979 18.366c-.109 0-.181-.072-.181-.18V5.998c0-.107.072-.179.181-.179h4.065c4.192 0 6.107 2.797 6.107 6.256 0 3.442-1.915 6.292-6.107 6.292h-4.065Zm3.921-1.434c2.945 0 4.462-2.08 4.462-4.858 0-2.796-1.517-4.822-4.462-4.822h-2.421v9.68h2.421Z"/><path fill="#2C2A25" d="M123.958 18.545c-2.601 0-4.408-1.882-4.408-4.624 0-2.797 1.807-4.697 4.408-4.697 2.62 0 4.409 1.9 4.409 4.697 0 2.742-1.789 4.624-4.409 4.624Zm0-1.362c1.645 0 2.711-1.29 2.711-3.28 0-2.008-1.066-3.317-2.711-3.317-1.644 0-2.71 1.309-2.71 3.317 0 1.99 1.066 3.28 2.71 3.28Z" style="pointer-events:auto"/><path fill="#2C2A25" d="M134.245 18.545c-2.602 0-4.409-1.828-4.409-4.624 0-2.833 1.807-4.697 4.409-4.697 1.969 0 3.559 1.076 4.083 2.868.054.126-.036.215-.144.215h-1.392c-.09 0-.162-.036-.198-.143-.434-.986-1.265-1.578-2.349-1.578-1.644 0-2.71 1.309-2.71 3.317 0 1.99 1.066 3.28 2.71 3.28 1.066 0 1.915-.591 2.349-1.541.036-.108.108-.144.198-.144h1.392c.108 0 .198.072.144.197-.506 1.775-2.096 2.85-4.083 2.85ZM143.007 18.545c-1.897 0-3.578-.932-3.722-2.706-.018-.108.054-.162.162-.162h1.374c.09 0 .144.054.162.144.109.86.867 1.488 2.024 1.488 1.391 0 2.023-.753 2.023-1.488 0-.574-.56-.986-1.319-1.183l-2.493-.664c-1.066-.286-1.68-.95-1.68-2.061 0-1.739 1.536-2.707 3.469-2.707 1.734 0 3.288.879 3.433 2.492.018.107-.055.161-.163.161h-1.373c-.09 0-.145-.036-.163-.143-.108-.843-.777-1.273-1.752-1.273-1.102 0-1.753.52-1.753 1.309 0 .61.434.968 1.084 1.147l2.602.663c1.084.269 1.807.896 1.807 2.115 0 1.775-1.699 2.868-3.722 2.868Z"/></svg>